Coordinates
version=1
nRows=5
nColumns=46
inDegrees=yes

Units are S.I. units (second, meters, Newtons, ...)
Angles are in degrees.

endheader
time	pelvis_tilt	pelvis_list	pelvis_rotation	pelvis_tx	pelvis_ty	pelvis_tz	bb_angle	bb_tx	bb_ty	bb_tz	hip_flexion_r	hip_adduction_r	hip_rotation_r	knee_angle_r	knee_angle_r_beta	ankle_angle_r	subtalar_angle_r	mtp_angle_r	crank_angle_r	hip_flexion_l	hip_adduction_l	hip_rotation_l	knee_angle_l	knee_angle_l_beta	ankle_angle_l	subtalar_angle_l	mtp_angle_l	crank_angle_l	lumbar_extension	lumbar_bending	lumbar_rotation	arm_flex_r	arm_add_r	arm_rot_r	elbow_flex_r	pro_sup_r	wrist_flex_r	wrist_dev_r	arm_flex_l	arm_add_l	arm_rot_l	elbow_flex_l	pro_sup_l	wrist_flex_l	wrist_dev_l
      7.50500000	    -21.84152275	     -2.92822965	     -6.70408003	      0.19229858	      1.04383966	     -0.21453219	      0.00000000	      0.50000000	      0.00000000	      0.25000000	     93.99753545	      2.83819291	      1.80059203	    102.53376825	      1.78955185	      0.03772082	     -7.16995662	      0.00000000	      0.00000000	     49.00848070	    -11.15822176	     -1.92700548	     60.37206208	      1.05369126	    -22.32646938	    -17.93922473	      0.00000000	      0.00000000	    -50.36374265	      1.22396755	      4.73434146	     77.95230425	    -20.50350728	     48.52902915	     64.73866672	     48.09843384	      0.00000000	      0.00000000	     62.40783603	    -22.05370253	     23.28286226	     72.47119568	     47.54391744	      0.00000000	      0.00000000
      7.51000000	    -21.77668537	     -2.80974575	     -6.59572566	      0.19227858	      1.04384466	     -0.21462897	      0.00000000	      0.50000000	      0.00000000	      0.25000000	     93.57220046	      2.77757730	      1.89213806	    101.71207360	      1.77521057	      0.07536678	     -7.29026385	      0.00000000	      0.00000000	     49.36476096	    -10.95316227	     -1.72787454	     61.39130799	      1.07148046	    -22.69532610	    -18.24391762	      0.00000000	      0.00000000	    -50.37469129	      1.17837624	      4.60613242	     77.82026963	    -20.42462236	     48.21092775	     64.65617336	     48.04721903	      0.00000000	      0.00000000	     62.42416525	    -21.88681905	     23.14586639	     72.41463833	     47.51248442	      0.00000000	      0.00000000
      7.51500000	    -21.66311396	     -2.60447178	     -6.45964198	      0.19227022	      1.04389296	     -0.21472091	      0.00000000	      0.50000000	      0.00000000	      0.25000000	     93.09513411	      2.76398490	      2.17384639	    100.89291491	      1.76091356	      0.18850744	     -7.33518022	      0.00000000	      0.00000000	     49.65183980	    -10.65446810	     -1.57046289	     62.38160767	      1.08876445	    -22.92447249	    -18.28566797	      0.00000000	      0.00000000	    -50.38499150	      1.06636864	      4.42661099	     77.98287289	    -20.48364406	     48.63377623	     64.30483861	     48.13853740	      0.00000000	      0.00000000	     62.79129138	    -21.86910128	     23.62411963	     71.85707656	     47.57165782	      0.00000000	      0.00000000
      7.52000000	    -21.56735451	     -2.45622379	     -6.34822678	      0.19236646	      1.04390947	     -0.21475849	      0.00000000	      0.50000000	      0.00000000	      0.25000000	     92.63959097	      2.68585570	      2.30876447	    100.07129307	      1.74657355	      0.20267578	     -7.37148950	      0.00000000	      0.00000000	     49.97260225	    -10.45923859	     -1.43916505	     63.40325947	      1.10659563	    -23.11632658	    -18.27167198	      0.00000000	      0.00000000	    -50.46151855	      0.97016838	      4.23903499	     77.67710333	    -20.30102335	     47.92017578	     64.43518138	     48.03601255	      0.00000000	      0.00000000	     62.77094472	    -21.65398847	     23.15346993	     72.06034481	     47.50551265	      0.00000000	      0.00000000
      7.52500000	    -21.41819913	     -2.32764440	     -6.07884344	      0.19215534	      1.04405935	     -0.21481238	      0.00000000	      0.50000000	      0.00000000	      0.25000000	     92.09241468	      2.50429124	      2.44410150	     99.26192534	      1.73244742	      0.28285435	     -7.33129148	      0.00000000	      0.00000000	     50.28215176	    -10.13495905	     -1.14921011	     64.35359654	      1.12318215	    -23.53118867	    -18.49624638	      0.00000000	      0.00000000	    -50.49225490	      0.98812921	      4.02289050	     77.94307651	    -20.38841514	     48.55682952	     63.95452231	     48.03382309	      0.00000000	      0.00000000	     63.21664275	    -21.74715571	     24.05965707	     71.32550770	     47.45914237	      0.00000000	      0.00000000
